HIERARCHY
ROOT Hips
{
  OFFSET 39.2757 100.996 -138.312
  CHANNELS 6 Xposition Yposition Zposition Zrotation Xrotation Yrotation
  JOINT RightUpLeg
  {
    OFFSET -8.9458 -8.66707 0.101652
    CHANNELS 3 Zrotation Xrotation Yrotation
    JOINT RightLeg
    {
      OFFSET 0 -44.4227 1.3727
      CHANNELS 3 Zrotation Xrotation Yrotation
      JOINT RightFoot
      {
        OFFSET 0.253549 -42.0924 -1.46059
        CHANNELS 3 Zrotation Xrotation Yrotation
        JOINT RightToes
        {
          OFFSET 0.04 -4.41509 8.4991
          CHANNELS 3 Zrotation Xrotation Yrotation
          End Site
          {
            OFFSET -0.08 -0.137448 9.77979
          }
        }
      }
    }
  }
  JOINT Spine
  {
    OFFSET 0 11.8905 0
    CHANNELS 3 Zrotation Xrotation Yrotation
    JOINT Spine1
    {
      OFFSET 0 25.6574 0.127663
      CHANNELS 3 Zrotation Xrotation Yrotation
      JOINT HEad
      {
        OFFSET 0 8.73416 0.011341
        CHANNELS 3 Zrotation Xrotation Yrotation
        End Site
        {
          OFFSET -0.29 12.7742 2.51395
        }
      }
      JOINT LeftShoulder1
      {
        OFFSET 8.99 -0.362252 -0.22
        CHANNELS 3 Zrotation Xrotation Yrotation
        JOINT LeftArm
        {
          OFFSET 10.2827 -0.00338 0.322123
          CHANNELS 3 Zrotation Xrotation Yrotation
          JOINT LeftForeArm
          {
            OFFSET 32.7669 0.099144 -1.42434
            CHANNELS 3 Zrotation Xrotation Yrotation
            JOINT LeftHand
            {
              OFFSET 27.5643 0.085362 1.02216
              CHANNELS 3 Zrotation Xrotation Yrotation
              End Site
              {
                OFFSET 16.7443 -0.6 1.50291
              }
            }
          }
        }
      }
      JOINT RightShoulder
      {
        OFFSET -8.99 -0.362252 -0.22
        CHANNELS 3 Zrotation Xrotation Yrotation
        JOINT RightArm
        {
          OFFSET -10.2827 -0.00338 0.322123
          CHANNELS 3 Zrotation Xrotation Yrotation
          JOINT RightForeArm
          {
            OFFSET -32.8971 0.099144 -1.42434
            CHANNELS 3 Zrotation Xrotation Yrotation
            JOINT RightHand
            {
              OFFSET -27.4921 0.085362 1.02216
              CHANNELS 3 Zrotation Xrotation Yrotation
              End Site
              {
                OFFSET -16.6312 -0.6 1.50291
              }
            }
          }
        }
      }
    }
  }
  JOINT LeftUpLeg
  {
    OFFSET 8.9458 -8.66707 0.101652
    CHANNELS 3 Zrotation Xrotation Yrotation
    JOINT LeftLeg
    {
      OFFSET 0 -44.4227 1.3727
      CHANNELS 3 Zrotation Xrotation Yrotation
      JOINT LeftFoot
      {
        OFFSET -0.253549 -42.0924 -1.46059
        CHANNELS 3 Zrotation Xrotation Yrotation
        JOINT LeftToes
        {
          OFFSET -0.04 -4.41509 8.4991
          CHANNELS 3 Zrotation Xrotation Yrotation
          End Site
          {
            OFFSET 0.08 -0.047448 9.77979
          }
        }
      }
    }
  }
}
MOTION
Frames:	10
Frame Time:	0.0166667
22.7051 99.5842 -25.3256 0.0201619 3.43281 8.86287 -0.0890606 -7.89936 -1.10141 9.05323 32.0305 -26.399 -0.822688 -31.2555 -0.555352 0.0462048 0.000533964 0.662642 6.83197 1.89884 1.90273 5.1876 3.78338 -0.0579486 -1.654 2.45688 -1.02149 -3.97569e-016 -1.59028e-015 -0 -84.15 -44.9336 10.6108 -23.2352 14.6761 -15.1378 0.368473 9.90896 -0.00117927 -6.52166 0.128422 1.18473 94.4551 -26.9446 23.4289 15.3057 14.6525 17.0943 -0.369625 9.91382 0.00119886 0.303325 -29.763 -1.56638 -2.7661 8.1647 19.4418 -8.7482 0.598912 0.346174 -19.5657 5.76552 4.84221 
23.0767 99.4884 -24.1677 0.145096 3.653 8.1968 -0.468494 -7.44779 -1.03526 9.02318 32.2488 -25.6276 -0.971849 -31.3142 -0.587633 0.0462048 0.000533964 0.662642 6.81641 1.88669 1.82407 4.95463 3.65616 -0.0492924 -1.78155 2.46146 -0.352586 2.5842e-015 -1.59028e-015 -4.77083e-015 -83.547 -45.2286 11.7643 -23.4704 14.7993 -15.7173 0.368473 9.90896 -0.00117927 -6.73986 0.127661 1.50033 95.0534 -26.787 23.5652 15.2331 14.6575 17.1232 -0.369625 9.91382 0.00119886 0.159995 -29.7503 -0.807687 -2.73174 8.60367 19.6709 -8.72922 0.678608 0.352392 -20.1869 6.67599 5.18324 
23.4809 99.4107 -22.9687 0.231918 3.87686 7.57927 -0.835306 -6.96789 -1.0081 8.95075 32.4389 -24.8105 -1.07957 -31.2594 -0.608294 0.0462048 0.000533964 0.662642 6.79216 1.88321 1.74191 4.7611 3.52392 -0.0417929 -1.91919 2.3803 0.250562 0 0 -0 -83.0252 -45.4096 12.7354 -23.6903 14.9251 -16.311 0.368473 9.90896 -0.00117927 -6.88543 0.127003 1.74078 95.4709 -26.6704 23.565 15.2154 14.6766 17.2412 -0.369625 9.91382 0.00119886 -0.0188906 -29.6399 -0.101666 -2.71839 9.11067 19.8165 -8.75329 0.798337 0.36378 -21.0783 7.45125 5.56228 
23.9107 99.3543 -21.7099 0.222386 4.07324 7.02688 -1.07858 -6.40902 -0.896448 8.83703 32.5542 -24.2095 -0.971541 -31.1001 -0.576763 0.0462048 0.000533964 0.662642 6.82266 1.88409 1.65927 4.61785 3.38817 -0.0348403 -2.11167 2.2316 0.850947 -7.95139e-016 0 -0 -82.5795 -45.4768 13.4495 -23.8657 15.0404 -16.8474 0.368473 9.90896 -0.00117927 -6.92539 0.128955 1.8945 95.621 -26.5425 23.4108 15.3091 14.7111 17.4121 -0.369625 9.91382 0.00119886 -0.186518 -29.4028 0.714567 -2.70572 9.79681 19.6334 -8.92966 0.888334 0.380865 -21.6701 6.52395 5.51858 
24.3712 99.328 -20.4029 0.161255 4.2351 6.54563 -1.2621 -5.74716 -0.680203 8.71449 32.5562 -23.7355 -0.758279 -30.8404 -0.519881 0.0462048 0.000533964 0.662642 6.84036 1.89003 1.57663 4.53278 3.25622 -0.0294638 -2.25717 2.05596 1.35887 -1.19271e-015 0 7.95139e-016 -82.2507 -45.4431 13.9018 -23.9983 15.132 -17.2747 0.368473 9.90896 -0.00117927 -6.89866 0.132691 2.00154 95.5851 -26.5364 23.0854 15.4368 14.7581 17.6654 -0.369625 9.91382 0.00119886 -0.387302 -29.0451 1.55953 -2.67618 10.4923 19.1876 -8.9814 1.14869 0.404468 -21.526 5.66162 5.30037 
24.8659 99.3347 -19.0352 0.0303021 4.32341 6.17195 -1.36172 -4.86976 -0.284263 8.61541 32.3141 -23.3987 -0.471677 -30.5173 -0.446298 0.0462048 0.000533964 0.662642 6.78973 1.90502 1.50213 4.58401 3.12343 -0.0273847 -2.25747 1.93403 1.65154 1.78906e-015 0 -7.95139e-016 -82.079 -45.2738 14.1024 -24.0975 15.1819 -17.5091 0.368473 9.90896 -0.00117927 -6.8141 0.138779 2.08116 95.3368 -26.7944 22.5146 15.5526 14.8171 18.0398 -0.369625 9.91382 0.00119886 -0.642203 -28.538 2.57571 -2.5773 11.1122 18.2075 -8.58741 1.73293 0.434391 -19.77 6.72673 5.05474 
25.393 99.3945 -17.6606 -0.0416494 4.403 5.83126 -1.55181 -3.99105 0.248137 8.54274 32.0558 -23.1648 -0.174098 -30.0413 -0.370403 0.0462048 0.000533964 0.662642 6.69809 1.91494 1.4158 4.57169 3.02717 -0.0259151 -2.15868 1.76387 1.89169 -2.18663e-015 0 -7.95139e-016 -82.0348 -45.1024 13.9507 -24.115 15.1949 -17.5754 0.368473 9.90896 -0.00117927 -6.72877 0.145544 2.18412 95.0899 -27.2394 21.8421 15.6181 14.8806 18.472 -0.369625 9.91382 0.00119886 -0.975113 -27.9606 3.25464 -2.50406 11.5035 17.4509 -7.99136 2.71097 0.474462 -17.1028 7.87058 4.60856 
25.9572 99.5432 -16.3507 0.099643 4.54774 5.40308 -2.01847 -3.31673 0.979102 8.49112 31.9466 -23.0133 0.0598605 -29.3366 -0.309806 0.0462048 0.000533964 0.662642 6.56361 1.89749 1.3019 4.29136 3.00822 -0.0229535 -1.96282 1.45832 2.27317 -1.39149e-015 -4.77083e-015 7.95139e-016 -82.0709 -45.1228 13.3592 -23.9742 15.1702 -17.4864 0.368473 9.90896 -0.00117927 -6.72224 0.151094 2.38927 95.0988 -27.8196 21.2397 15.5719 14.9412 18.8964 -0.369625 9.91382 0.00119886 -1.36651 -27.3843 3.18181 -2.54481 11.266 17.6878 -7.21008 4.6918 0.545559 -13.3541 7.44223 3.6071 
26.5418 99.7373 -15.0395 0.368328 4.69192 5.06109 -2.67259 -2.76058 1.67114 8.4994 32.0441 -22.8981 0.235639 -28.3991 -0.26321 0.0462048 0.000533964 0.662642 6.41773 1.88119 1.15589 3.83498 3.05173 -0.0184644 -1.69068 1.05363 2.57959 -3.57812e-015 1.59028e-015 -1.59028e-015 -82.2735 -45.0983 12.3008 -23.7652 15.1029 -17.196 0.368473 9.90896 -0.00117927 -6.73583 0.15664 2.63172 95.2198 -28.6091 20.5544 15.4405 15 19.3581 -0.369625 9.91382 0.00119886 -1.85508 -26.8234 2.27124 -2.74783 11.0511 18.6252 -6.60794 6.21165 0.597553 -10.3914 6.69636 2.74146 
27.1269 99.9536 -13.6698 0.747023 4.78192 4.99514 -3.5032 -2.2509 2.06801 8.6341 32.4203 -22.7043 0.2318 -27.1675 -0.252771 0.0462048 0.000533964 0.662642 6.30505 1.88394 0.956453 3.19362 3.18293 -0.0119062 -1.35472 0.480654 2.57678 -5.96354e-016 1.59028e-015 -0 -82.7197 -44.7351 10.6549 -23.5771 14.9673 -16.5669 0.368473 9.90896 -0.00117927 -6.71461 0.164879 2.90615 95.3836 -29.7499 19.6331 15.2095 15.0636 19.9586 -0.369625 9.91382 0.00119886 -2.49196 -26.3131 -0.288817 -3.35318 11.5184 20.7474 -6.68655 5.50245 0.566796 -10.5666 6.49998 2.75614 
